<?xml version="1.0" encoding="UTF-8"?>
<svg id="uuid-48d6354b-6492-4d32-8c69-e38fd07c3cfc" data-name="Build icon here" xmlns="http://www.w3.org/2000/svg" xmlns:xlink="http://www.w3.org/1999/xlink" viewBox="0 0 32 32">
  <defs>
    <linearGradient id="uuid-093c456e-003b-4777-9e60-8e21925d6e03" x1="135.495" y1="-120.126" x2="155.179" y2="-114.852" gradientTransform="translate(167.206 -109.392) rotate(-180)" gradientUnits="userSpaceOnUse">
      <stop offset=".301" stop-color="#000" stop-opacity="0"/>
      <stop offset=".84" stop-color="#000"/>
    </linearGradient>
    <linearGradient id="uuid-5434819b-ea9e-4d36-b3ff-35a995a4e42e" x1="1334.667" y1="3052.168" x2="1357.543" y2="3058.298" gradientTransform="translate(-1334.192 -3028.608)" gradientUnits="userSpaceOnUse">
      <stop offset=".245" stop-color="#000" stop-opacity="0"/>
      <stop offset=".801" stop-color="#000"/>
    </linearGradient>
    <mask id="uuid-88de7796-5a9b-4f63-982a-30ffe99a91a7" data-name="mask" x="1" y="1" width="30.024" height="30" maskUnits="userSpaceOnUse">
      <g>
        <circle cx="16" cy="16" r="12" fill="none" stroke="#fff" stroke-miterlimit="10" stroke-width="2"/>
        <polygon points="12 8.011 12 2.011 31.024 2.011 31.024 18.011 27 18.011 21 8.011 12 8.011" fill="url(#uuid-093c456e-003b-4777-9e60-8e21925d6e03)"/>
        <polygon points="23 25 23 31 1.965 31 1.965 18 6 18 11 25 23 25" fill="url(#uuid-5434819b-ea9e-4d36-b3ff-35a995a4e42e)"/>
        <rect x="1" y="1" width="11" height="15"/>
        <rect x="22" y="16" width="9" height="15"/>
      </g>
    </mask>
  </defs>
  <g mask="url(#uuid-88de7796-5a9b-4f63-982a-30ffe99a91a7)">
    <path d="M0,0H32v32H0V0Z"/>
  </g>
  <path d="M13,9c0-.552-.111-1.074-.278-1.572l1.84-1.062-1-1.732-1.839,1.062c-.705-.794-1.644-1.375-2.723-1.594V2h-2v2.101c-1.079,.22-2.018,.801-2.723,1.594l-1.839-1.062-1,1.732,1.84,1.062c-.166,.497-.278,1.019-.278,1.572s.111,1.074,.278,1.572l-1.84,1.062,1,1.732,1.839-1.062c.705,.794,1.644,1.375,2.723,1.594v2.101h2v-2.101c1.079-.22,2.018-.801,2.723-1.594l1.839,1.062,1-1.732-1.84-1.062c.166-.497,.278-1.019,.278-1.572Zm-5,3c-1.654,0-3-1.346-3-3s1.346-3,3-3,3,1.346,3,3-1.346,3-3,3Z"/>
  <path d="M25,30l-2.139-1.012c-1.738-.823-2.861-2.598-2.861-4.521v-6.468h10v6.468c0,1.924-1.123,3.697-2.861,4.52l-2.139,1.013Zm-1.283-2.82l1.283,.607,1.283-.607c1.043-.493,1.717-1.558,1.717-2.712v-4.468h-6v4.468c0,1.154,.674,2.219,1.717,2.712h0Z"/>
</svg>