<?xml version="1.0" encoding="UTF-8"?>
<svg id="uuid-52fa99b5-3168-499c-8450-b06028830d37" data-name="Build icon here" xmlns="http://www.w3.org/2000/svg" xmlns:xlink="http://www.w3.org/1999/xlink" viewBox="0 0 32 32">
  <defs>
    <linearGradient id="uuid-2bc167e7-c6ad-4244-8561-18e17a6b7f35" x1="255.495" y1="-.126" x2="275.179" y2="5.148" gradientTransform="translate(287.206 10.608) rotate(-180)" gradientUnits="userSpaceOnUse">
      <stop offset=".301" stop-color="#000" stop-opacity="0"/>
      <stop offset=".84" stop-color="#000"/>
    </linearGradient>
    <linearGradient id="uuid-663bcc1a-2950-4a01-8620-633d9b1c9c5d" x1="1334.667" y1="3052.168" x2="1357.543" y2="3058.298" gradientTransform="translate(-1334.192 -3028.608)" gradientUnits="userSpaceOnUse">
      <stop offset=".245" stop-color="#000" stop-opacity="0"/>
      <stop offset=".801" stop-color="#000"/>
    </linearGradient>
    <mask id="uuid-1c99f4b1-ffd8-41c3-8edd-533353289592" data-name="mask" x="1" y="1" width="30.024" height="30" maskUnits="userSpaceOnUse">
      <g>
        <circle cx="16" cy="16" r="12" fill="none" stroke="#fff" stroke-miterlimit="10" stroke-width="2"/>
        <polygon points="12 8.011 12 2.011 31.024 2.011 31.024 18.011 27 18.011 21 8.011 12 8.011" fill="url(#uuid-2bc167e7-c6ad-4244-8561-18e17a6b7f35)"/>
        <polygon points="23 25 23 31 1.965 31 1.965 18 6 18 11 25 23 25" fill="url(#uuid-663bcc1a-2950-4a01-8620-633d9b1c9c5d)"/>
        <rect x="1" y="1" width="11" height="15"/>
        <rect x="22" y="16" width="9" height="15"/>
      </g>
    </mask>
    <linearGradient id="uuid-ffb8977c-cc79-4ac8-8db6-a45fe0959025" x1="0" y1="2" x2="32" y2="34" gradientTransform="translate(0 34) scale(1 -1)" gradientUnits="userSpaceOnUse">
      <stop offset=".1" stop-color="#3ddbd9"/>
      <stop offset=".9" stop-color="#4589ff"/>
    </linearGradient>
  </defs>
  <g mask="url(#uuid-1c99f4b1-ffd8-41c3-8edd-533353289592)">
    <path d="M0,0H32v32H0V0Z" fill="url(#uuid-ffb8977c-cc79-4ac8-8db6-a45fe0959025)"/>
  </g>
  <path d="M13,9c0-.552-.111-1.074-.278-1.572l1.84-1.062-1-1.732-1.839,1.062c-.705-.794-1.644-1.375-2.723-1.594V2h-2v2.101c-1.079,.22-2.018,.801-2.723,1.594l-1.839-1.062-1,1.732,1.84,1.062c-.166,.497-.278,1.019-.278,1.572s.111,1.074,.278,1.572l-1.84,1.062,1,1.732,1.839-1.062c.705,.794,1.644,1.375,2.723,1.594v2.101h2v-2.101c1.079-.22,2.018-.801,2.723-1.594l1.839,1.062,1-1.732-1.84-1.062c.166-.497,.278-1.019,.278-1.572Zm-5,3c-1.654,0-3-1.346-3-3s1.346-3,3-3,3,1.346,3,3-1.346,3-3,3Z" fill="#f3f3f3"/>
  <path d="M25,30l-2.139-1.012c-1.738-.823-2.861-2.598-2.861-4.521v-6.468h10v6.468c0,1.924-1.123,3.697-2.861,4.52l-2.139,1.013Zm-1.283-2.82l1.283,.607,1.283-.607c1.043-.493,1.717-1.558,1.717-2.712v-4.468h-6v4.468c0,1.154,.674,2.219,1.717,2.712h0Z" fill="#f2f2f2"/>
</svg>